# xmcd
#
# Track frame offsets: 
#        150
#        12752
#        29362
#        44981
#        57307
#        70621
#        73790
#        87873
#        99588
#        114615
#        123147
#        137611
#
# Disc length: 1998 seconds
#
# Revision: 1
# Processed by: cddbd v1.5.2PL0 Copyright (c) Steve Scherf et al.
# Submitted via: ExactAudioCopy v1.0b3
#
DISCID=a407cc0c
DTITLE=The Cyborgs - The Cyborgs
DYEAR=2010
DGENRE=Blues
TTITLE0=Cyborgs Boogie
TTITLE1=20th Floor
TTITLE2=2110
TTITLE3=Human Face
TTITLE4=Highway Man
TTITLE5=Prelude
TTITLE6=No! No! No!
TTITLE7=I'm Tired
TTITLE8=Dancy
TTITLE9=Bag Time
TTITLE10=Human Face Remix
TTITLE11=Cyborgs Boogie Reprise
EXTD=
EXTT0=
EXTT1=
EXTT2=
EXTT3=
EXTT4=
EXTT5=
EXTT6=
EXTT7=
EXTT8=
EXTT9=
EXTT10=
EXTT11=
PLAYORDER=
